<svg width="140" height="140" viewBox="0 0 140 140" fill="none" xmlns="http://www.w3.org/2000/svg">
<path d="M70.002 140.004C108.663 140.004 140.004 108.663 140.004 70.0019C140.004 31.3409 108.663 0 70.002 0C31.3409 0 0 31.3409 0 70.0019C0 108.663 31.3409 140.004 70.002 140.004Z" fill="#141518"/>
<path d="M136.581 70.0032C136.581 106.777 106.769 136.588 69.9954 136.588C33.2214 136.588 3.41016 106.777 3.41016 70.0032C3.41016 33.2292 33.2214 3.41797 69.9954 3.41797C106.769 3.41797 136.581 33.2292 136.581 70.0032Z" fill="#141518" stroke="url(#paint0_linear_3868_51915)"/>
<path d="M70.2252 101.488C63.4043 101.498 56.6326 100.333 50.2071 98.044C50.0158 97.9773 49.8397 97.8734 49.6889 97.7382C49.538 97.6029 49.4156 97.4392 49.3285 97.2563C49.2414 97.0734 49.1914 96.8751 49.1815 96.6728C49.1716 96.4705 49.2019 96.2682 49.2707 96.0777C49.3386 95.8828 49.4449 95.7034 49.5833 95.5503C49.7216 95.3971 49.8893 95.2733 50.0763 95.186C50.2633 95.0987 50.466 95.0498 50.6722 95.0421C50.8785 95.0344 51.0842 95.0681 51.2772 95.1413C57.3716 97.3045 63.7918 98.4062 70.2587 98.3985C76.5827 98.4052 82.8631 97.3517 88.8388 95.2818C89.0303 95.2142 89.2332 95.1852 89.4359 95.1964C89.6385 95.2077 89.837 95.2589 90.0198 95.3472C90.2026 95.4355 90.3661 95.5591 90.5009 95.7108C90.6357 95.8626 90.7391 96.0396 90.8052 96.2315C90.8717 96.4225 90.8999 96.6248 90.8882 96.8267C90.8765 97.0286 90.825 97.2263 90.7368 97.4083C90.6486 97.5903 90.5253 97.7532 90.3741 97.8875C90.2229 98.0219 90.0466 98.125 89.8555 98.1912C83.5435 100.384 76.9073 101.499 70.2252 101.488Z" fill="white"/>
<path d="M51.6205 47.8574H49.7131C49.6429 47.8574 49.5859 47.9138 49.5859 47.9834V49.9985C49.5859 50.068 49.6429 50.1244 49.7131 50.1244H51.6205C51.6907 50.1244 51.7477 50.068 51.7477 49.9985V47.9834C51.7477 47.9138 51.6907 47.8574 51.6205 47.8574Z" fill="white"/>
<path d="M51.6205 50.3867H49.7131C49.6429 50.3867 49.5859 50.4431 49.5859 50.5127V52.5278C49.5859 52.5973 49.6429 52.6537 49.7131 52.6537H51.6205C51.6907 52.6537 51.7477 52.5973 51.7477 52.5278V50.5127C51.7477 50.4431 51.6907 50.3867 51.6205 50.3867Z" fill="white"/>
<path d="M51.6205 52.9375H49.7131C49.6429 52.9375 49.5859 52.9939 49.5859 53.0634V55.0786C49.5859 55.1481 49.6429 55.2045 49.7131 55.2045H51.6205C51.6907 55.2045 51.7477 55.1481 51.7477 55.0786V53.0634C51.7477 52.9939 51.6907 52.9375 51.6205 52.9375Z" fill="white"/>
<path d="M51.6205 55.4551H49.7131C49.6429 55.4551 49.5859 55.5115 49.5859 55.581V57.5961C49.5859 57.6657 49.6429 57.7221 49.7131 57.7221H51.6205C51.6907 57.7221 51.7477 57.6657 51.7477 57.5961V55.581C51.7477 55.5115 51.6907 55.4551 51.6205 55.4551Z" fill="white"/>
<path d="M51.6205 57.9922H49.7131C49.6429 57.9922 49.5859 58.0486 49.5859 58.1181V60.1332C49.5859 60.2028 49.6429 60.2592 49.7131 60.2592H51.6205C51.6907 60.2592 51.7477 60.2028 51.7477 60.1332V58.1181C51.7477 58.0486 51.6907 57.9922 51.6205 57.9922Z" fill="white"/>
<path d="M54.0346 45.3164H52.1272C52.0569 45.3164 52 45.3728 52 45.4424V47.4575C52 47.527 52.0569 47.5834 52.1272 47.5834H54.0346C54.1048 47.5834 54.1617 47.527 54.1617 47.4575V45.4424C54.1617 45.3728 54.1048 45.3164 54.0346 45.3164Z" fill="white"/>
<path d="M54.0346 60.5215H52.1272C52.0569 60.5215 52 60.5779 52 60.6474V62.6625C52 62.7321 52.0569 62.7885 52.1272 62.7885H54.0346C54.1048 62.7885 54.1617 62.7321 54.1617 62.6625V60.6474C54.1617 60.5779 54.1048 60.5215 54.0346 60.5215Z" fill="white"/>
<path d="M56.4525 45.3164H54.5451C54.4749 45.3164 54.418 45.3728 54.418 45.4424V47.4575C54.418 47.527 54.4749 47.5834 54.5451 47.5834H56.4525C56.5228 47.5834 56.5797 47.527 56.5797 47.4575V45.4424C56.5797 45.3728 56.5228 45.3164 56.4525 45.3164Z" fill="white"/>
<path d="M56.4525 60.5215H54.5451C54.4749 60.5215 54.418 60.5779 54.418 60.6474V62.6625C54.418 62.7321 54.4749 62.7885 54.5451 62.7885H56.4525C56.5228 62.7885 56.5797 62.7321 56.5797 62.6625V60.6474C56.5797 60.5779 56.5228 60.5215 56.4525 60.5215Z" fill="white"/>
<path d="M58.8744 45.3164H56.967C56.8968 45.3164 56.8398 45.3728 56.8398 45.4424V47.4575C56.8398 47.527 56.8968 47.5834 56.967 47.5834H58.8744C58.9446 47.5834 59.0016 47.527 59.0016 47.4575V45.4424C59.0016 45.3728 58.9446 45.3164 58.8744 45.3164Z" fill="white"/>
<path d="M58.8744 60.5215H56.967C56.8968 60.5215 56.8398 60.5779 56.8398 60.6474V62.6625C56.8398 62.7321 56.8968 62.7885 56.967 62.7885H58.8744C58.9446 62.7885 59.0016 62.7321 59.0016 62.6625V60.6474C59.0016 60.5779 58.9446 60.5215 58.8744 60.5215Z" fill="white"/>
<path d="M61.2846 47.8574H59.3772C59.3069 47.8574 59.25 47.9138 59.25 47.9834V49.9985C59.25 50.068 59.3069 50.1244 59.3772 50.1244H61.2846C61.3548 50.1244 61.4117 50.068 61.4117 49.9985V47.9834C61.4117 47.9138 61.3548 47.8574 61.2846 47.8574Z" fill="white"/>
<path d="M61.2846 50.3711H59.3772C59.3069 50.3711 59.25 50.4275 59.25 50.497V52.5121C59.25 52.5817 59.3069 52.6381 59.3772 52.6381H61.2846C61.3548 52.6381 61.4117 52.5817 61.4117 52.5121V50.497C61.4117 50.4275 61.3548 50.3711 61.2846 50.3711Z" fill="white"/>
<path d="M61.2846 52.9375H59.3772C59.3069 52.9375 59.25 52.9939 59.25 53.0634V55.0786C59.25 55.1481 59.3069 55.2045 59.3772 55.2045H61.2846C61.3548 55.2045 61.4117 55.1481 61.4117 55.0786V53.0634C61.4117 52.9939 61.3548 52.9375 61.2846 52.9375Z" fill="white"/>
<path d="M61.2846 55.4551H59.3772C59.3069 55.4551 59.25 55.5115 59.25 55.581V57.5961C59.25 57.6657 59.3069 57.7221 59.3772 57.7221H61.2846C61.3548 57.7221 61.4117 57.6657 61.4117 57.5961V55.581C61.4117 55.5115 61.3548 55.4551 61.2846 55.4551Z" fill="white"/>
<path d="M61.2846 57.9922H59.3772C59.3069 57.9922 59.25 58.0486 59.25 58.1181V60.1332C59.25 60.2028 59.3069 60.2592 59.3772 60.2592H61.2846C61.3548 60.2592 61.4117 60.2028 61.4117 60.1332V58.1181C61.4117 58.0486 61.3548 57.9922 61.2846 57.9922Z" fill="white"/>
<path d="M81.0346 47.8574H79.1272C79.0569 47.8574 79 47.9138 79 47.9834V49.9985C79 50.068 79.0569 50.1244 79.1272 50.1244H81.0346C81.1048 50.1244 81.1617 50.068 81.1617 49.9985V47.9834C81.1617 47.9138 81.1048 47.8574 81.0346 47.8574Z" fill="white"/>
<path d="M81.0346 50.3867H79.1272C79.0569 50.3867 79 50.4431 79 50.5127V52.5278C79 52.5973 79.0569 52.6537 79.1272 52.6537H81.0346C81.1048 52.6537 81.1617 52.5973 81.1617 52.5278V50.5127C81.1617 50.4431 81.1048 50.3867 81.0346 50.3867Z" fill="white"/>
<path d="M81.0346 52.9375H79.1272C79.0569 52.9375 79 52.9939 79 53.0634V55.0786C79 55.1481 79.0569 55.2045 79.1272 55.2045H81.0346C81.1048 55.2045 81.1617 55.1481 81.1617 55.0786V53.0634C81.1617 52.9939 81.1048 52.9375 81.0346 52.9375Z" fill="white"/>
<path d="M81.0346 55.4551H79.1272C79.0569 55.4551 79 55.5115 79 55.581V57.5961C79 57.6657 79.0569 57.7221 79.1272 57.7221H81.0346C81.1048 57.7221 81.1617 57.6657 81.1617 57.5961V55.581C81.1617 55.5115 81.1048 55.4551 81.0346 55.4551Z" fill="white"/>
<path d="M81.0346 57.9922H79.1272C79.0569 57.9922 79 58.0486 79 58.1181V60.1332C79 60.2028 79.0569 60.2592 79.1272 60.2592H81.0346C81.1048 60.2592 81.1617 60.2028 81.1617 60.1332V58.1181C81.1617 58.0486 81.1048 57.9922 81.0346 57.9922Z" fill="white"/>
<path d="M83.4486 45.3164H81.5412C81.471 45.3164 81.4141 45.3728 81.4141 45.4424V47.4575C81.4141 47.527 81.471 47.5834 81.5412 47.5834H83.4486C83.5189 47.5834 83.5758 47.527 83.5758 47.4575V45.4424C83.5758 45.3728 83.5189 45.3164 83.4486 45.3164Z" fill="white"/>
<path d="M83.4486 60.5215H81.5412C81.471 60.5215 81.4141 60.5779 81.4141 60.6474V62.6625C81.4141 62.7321 81.471 62.7885 81.5412 62.7885H83.4486C83.5189 62.7885 83.5758 62.7321 83.5758 62.6625V60.6474C83.5758 60.5779 83.5189 60.5215 83.4486 60.5215Z" fill="white"/>
<path d="M85.8666 45.3164H83.9592C83.889 45.3164 83.832 45.3728 83.832 45.4424V47.4575C83.832 47.527 83.889 47.5834 83.9592 47.5834H85.8666C85.9368 47.5834 85.9938 47.527 85.9938 47.4575V45.4424C85.9938 45.3728 85.9368 45.3164 85.8666 45.3164Z" fill="white"/>
<path d="M85.8666 60.5215H83.9592C83.889 60.5215 83.832 60.5779 83.832 60.6474V62.6625C83.832 62.7321 83.889 62.7885 83.9592 62.7885H85.8666C85.9368 62.7885 85.9938 62.7321 85.9938 62.6625V60.6474C85.9938 60.5779 85.9368 60.5215 85.8666 60.5215Z" fill="white"/>
<path d="M88.2885 45.3164H86.3811C86.3108 45.3164 86.2539 45.3728 86.2539 45.4424V47.4575C86.2539 47.527 86.3108 47.5834 86.3811 47.5834H88.2885C88.3587 47.5834 88.4156 47.527 88.4156 47.4575V45.4424C88.4156 45.3728 88.3587 45.3164 88.2885 45.3164Z" fill="white"/>
<path d="M88.2885 60.5215H86.3811C86.3108 60.5215 86.2539 60.5779 86.2539 60.6474V62.6625C86.2539 62.7321 86.3108 62.7885 86.3811 62.7885H88.2885C88.3587 62.7885 88.4156 62.7321 88.4156 62.6625V60.6474C88.4156 60.5779 88.3587 60.5215 88.2885 60.5215Z" fill="white"/>
<path d="M90.6986 47.8574H88.7912C88.721 47.8574 88.6641 47.9138 88.6641 47.9834V49.9985C88.6641 50.068 88.721 50.1244 88.7912 50.1244H90.6986C90.7689 50.1244 90.8258 50.068 90.8258 49.9985V47.9834C90.8258 47.9138 90.7689 47.8574 90.6986 47.8574Z" fill="white"/>
<path d="M90.6986 50.3711H88.7912C88.721 50.3711 88.6641 50.4275 88.6641 50.497V52.5121C88.6641 52.5817 88.721 52.6381 88.7912 52.6381H90.6986C90.7689 52.6381 90.8258 52.5817 90.8258 52.5121V50.497C90.8258 50.4275 90.7689 50.3711 90.6986 50.3711Z" fill="white"/>
<path d="M90.6986 52.9375H88.7912C88.721 52.9375 88.6641 52.9939 88.6641 53.0634V55.0786C88.6641 55.1481 88.721 55.2045 88.7912 55.2045H90.6986C90.7689 55.2045 90.8258 55.1481 90.8258 55.0786V53.0634C90.8258 52.9939 90.7689 52.9375 90.6986 52.9375Z" fill="white"/>
<path d="M90.6986 55.4551H88.7912C88.721 55.4551 88.6641 55.5115 88.6641 55.581V57.5961C88.6641 57.6657 88.721 57.7221 88.7912 57.7221H90.6986C90.7689 57.7221 90.8258 57.6657 90.8258 57.5961V55.581C90.8258 55.5115 90.7689 55.4551 90.6986 55.4551Z" fill="white"/>
<path d="M90.6986 57.9922H88.7912C88.721 57.9922 88.6641 58.0486 88.6641 58.1181V60.1332C88.6641 60.2028 88.721 60.2592 88.7912 60.2592H90.6986C90.7689 60.2592 90.8258 60.2028 90.8258 60.1332V58.1181C90.8258 58.0486 90.7689 57.9922 90.6986 57.9922Z" fill="white"/>
<defs>
<linearGradient id="paint0_linear_3868_51915" x1="137.081" y1="137.088" x2="2.91016" y2="137.088" gradientUnits="userSpaceOnUse">
<stop stop-color="#64FFEB"/>
<stop offset="1" stop-color="#2A6FF4"/>
</linearGradient>
</defs>
</svg>
