<svg width="160" height="161" viewBox="0 0 160 161" fill="none" xmlns="http://www.w3.org/2000/svg">
<path d="M80 160.5C124.183 160.5 160 124.683 160 80.5C160 36.3172 124.183 0.5 80 0.5C35.8172 0.5 0 36.3172 0 80.5C0 124.683 35.8172 160.5 80 160.5Z" fill="#141518"/>
<path d="M156.158 80.5006C156.158 122.566 122.057 156.667 79.9909 156.667C37.9252 156.667 3.82422 122.566 3.82422 80.5006C3.82422 38.4349 37.9252 4.33398 79.9909 4.33398C122.057 4.33398 156.158 38.4349 156.158 80.5006Z" fill="#141518" stroke="#A1A5B7"/>
<path d="M80.2584 116.484C72.4632 116.494 64.7245 115.163 57.3811 112.547C57.1626 112.471 56.9613 112.352 56.7889 112.198C56.6166 112.043 56.4766 111.856 56.3771 111.647C56.2776 111.438 56.2205 111.211 56.2091 110.98C56.1978 110.749 56.2325 110.518 56.3111 110.3C56.3887 110.077 56.5101 109.872 56.6682 109.697C56.8264 109.522 57.018 109.381 57.2317 109.281C57.4455 109.181 57.677 109.125 57.9127 109.116C58.1485 109.108 58.3836 109.146 58.6041 109.23C65.5689 111.702 72.9061 112.961 80.2966 112.952C87.5239 112.96 94.7013 111.756 101.531 109.39C101.749 109.313 101.981 109.28 102.213 109.293C102.444 109.306 102.671 109.364 102.88 109.465C103.089 109.566 103.276 109.707 103.43 109.881C103.584 110.054 103.702 110.256 103.778 110.476C103.854 110.694 103.886 110.925 103.873 111.156C103.859 111.387 103.8 111.613 103.7 111.821C103.599 112.029 103.458 112.215 103.285 112.368C103.112 112.522 102.911 112.64 102.692 112.715C95.4789 115.222 87.8949 116.496 80.2584 116.484Z" fill="white"/>
<path d="M93.3252 60.9668H91.1453C91.0651 60.9668 91 61.0312 91 61.1107V63.4137C91 63.4931 91.0651 63.5576 91.1453 63.5576H93.3252C93.4054 63.5576 93.4705 63.4931 93.4705 63.4137V61.1107C93.4705 61.0312 93.4054 60.9668 93.3252 60.9668Z" fill="white"/>
<path d="M96.083 60.9668H93.9031C93.8229 60.9668 93.7578 61.0312 93.7578 61.1107V63.4137C93.7578 63.4931 93.8229 63.5576 93.9031 63.5576H96.083C96.1632 63.5576 96.2283 63.4931 96.2283 63.4137V61.1107C96.2283 61.0312 96.1632 60.9668 96.083 60.9668Z" fill="white"/>
<path d="M98.8486 60.9668H96.6688C96.5885 60.9668 96.5234 61.0312 96.5234 61.1107V63.4137C96.5234 63.4931 96.5885 63.5576 96.6688 63.5576H98.8486C98.9289 63.5576 98.9939 63.4931 98.9939 63.4137V61.1107C98.9939 61.0312 98.9289 60.9668 98.8486 60.9668Z" fill="white"/>
<path d="M101.614 60.9668H99.4344C99.3541 60.9668 99.2891 61.0312 99.2891 61.1107V63.4137C99.2891 63.4931 99.3541 63.5576 99.4344 63.5576H101.614C101.694 63.5576 101.76 63.4931 101.76 63.4137V61.1107C101.76 61.0312 101.694 60.9668 101.614 60.9668Z" fill="white"/>
<path d="M104.372 60.9668H102.192C102.112 60.9668 102.047 61.0312 102.047 61.1107V63.4137C102.047 63.4931 102.112 63.5576 102.192 63.5576H104.372C104.452 63.5576 104.517 63.4931 104.517 63.4137V61.1107C104.517 61.0312 104.452 60.9668 104.372 60.9668Z" fill="white"/>
<path d="M57.1845 60.9668H55.0047C54.9244 60.9668 54.8594 61.0312 54.8594 61.1107V63.4137C54.8594 63.4931 54.9244 63.5576 55.0047 63.5576H57.1845C57.2648 63.5576 57.3299 63.4931 57.3299 63.4137V61.1107C57.3299 61.0312 57.2648 60.9668 57.1845 60.9668Z" fill="white"/>
<path d="M59.9423 60.9668H57.7625C57.6823 60.9668 57.6172 61.0312 57.6172 61.1107V63.4137C57.6172 63.4931 57.6823 63.5576 57.7625 63.5576H59.9423C60.0226 63.5576 60.0877 63.4931 60.0877 63.4137V61.1107C60.0877 61.0312 60.0226 60.9668 59.9423 60.9668Z" fill="white"/>
<path d="M62.708 60.9668H60.5281C60.4479 60.9668 60.3828 61.0312 60.3828 61.1107V63.4137C60.3828 63.4931 60.4479 63.5576 60.5281 63.5576H62.708C62.7882 63.5576 62.8533 63.4931 62.8533 63.4137V61.1107C62.8533 61.0312 62.7882 60.9668 62.708 60.9668Z" fill="white"/>
<path d="M65.4736 60.9668H63.2938C63.2135 60.9668 63.1484 61.0312 63.1484 61.1107V63.4137C63.1484 63.4931 63.2135 63.5576 63.2938 63.5576H65.4736C65.5539 63.5576 65.6189 63.4931 65.6189 63.4137V61.1107C65.6189 61.0312 65.5539 60.9668 65.4736 60.9668Z" fill="white"/>
<path d="M68.2314 60.9668H66.0516C65.9713 60.9668 65.9062 61.0312 65.9062 61.1107V63.4137C65.9062 63.4931 65.9713 63.5576 66.0516 63.5576H68.2314C68.3117 63.5576 68.3767 63.4931 68.3767 63.4137V61.1107C68.3767 61.0312 68.3117 60.9668 68.2314 60.9668Z" fill="white"/>
</svg>
