<svg width="140" height="140" viewBox="0 0 140 140" fill="none" xmlns="http://www.w3.org/2000/svg">
<path d="M70.002 140C108.663 140 140.004 108.659 140.004 69.998C140.004 31.337 108.663 -0.00390625 70.002 -0.00390625C31.3409 -0.00390625 0 31.337 0 69.998C0 108.659 31.3409 140 70.002 140Z" fill="#141518"/>
<path d="M136.581 69.9993C136.581 106.773 106.769 136.584 69.9954 136.584C33.2214 136.584 3.41016 106.773 3.41016 69.9993C3.41016 33.2253 33.2214 3.41406 69.9954 3.41406C106.769 3.41406 136.581 33.2253 136.581 69.9993Z" fill="#141518" stroke="#FD4E4E"/>
<g filter="url(#filter0_d_3868_33253)">
<path d="M58.9576 47.5273H57.0854C57.0124 47.5273 56.9531 47.5867 56.9531 47.6599V49.6613C56.9531 49.7345 57.0124 49.7938 57.0854 49.7938H58.9576C59.0307 49.7938 59.09 49.7345 59.09 49.6613V47.6599C59.09 47.5867 59.0307 47.5273 58.9576 47.5273Z" fill="white"/>
</g>
<g filter="url(#filter1_d_3868_33253)">
<path d="M58.9772 57.6543H57.105C57.0319 57.6543 56.9727 57.7136 56.9727 57.7868V59.7882C56.9727 59.8614 57.0319 59.9208 57.105 59.9208H58.9772C59.0502 59.9208 59.1095 59.8614 59.1095 59.7882V57.7868C59.1095 57.7136 59.0502 57.6543 58.9772 57.6543Z" fill="white"/>
</g>
<g filter="url(#filter2_d_3868_33253)">
<path d="M61.3405 44.998H59.4682C59.3952 44.998 59.3359 45.0574 59.3359 45.1306V47.132C59.3359 47.2052 59.3952 47.2645 59.4682 47.2645H61.3405C61.4135 47.2645 61.4728 47.2052 61.4728 47.132V45.1306C61.4728 45.0574 61.4135 44.998 61.3405 44.998Z" fill="white"/>
</g>
<g filter="url(#filter3_d_3868_33253)">
<path d="M61.3405 60.2129H59.4682C59.3952 60.2129 59.3359 60.2722 59.3359 60.3454V62.3468C59.3359 62.42 59.3952 62.4794 59.4682 62.4794H61.3405C61.4135 62.4794 61.4728 62.42 61.4728 62.3468V60.3454C61.4728 60.2722 61.4135 60.2129 61.3405 60.2129Z" fill="white"/>
</g>
<g filter="url(#filter4_d_3868_33253)">
<path d="M47.0045 44.998H45.1323C45.0592 44.998 45 45.0574 45 45.1306V47.132C45 47.2052 45.0592 47.2645 45.1323 47.2645H47.0045C47.0776 47.2645 47.1368 47.2052 47.1368 47.132V45.1306C47.1368 45.0574 47.0776 44.998 47.0045 44.998Z" fill="white"/>
</g>
<g filter="url(#filter5_d_3868_33253)">
<path d="M47.0045 60.2129H45.1323C45.0592 60.2129 45 60.2722 45 60.3454V62.3468C45 62.42 45.0592 62.4794 45.1323 62.4794H47.0045C47.0776 62.4794 47.1368 62.42 47.1368 62.3468V60.3454C47.1368 60.2722 47.0776 60.2129 47.0045 60.2129Z" fill="white"/>
</g>
<g filter="url(#filter6_d_3868_33253)">
<path d="M49.4069 47.5078H47.5347C47.4616 47.5078 47.4023 47.5672 47.4023 47.6404V49.6417C47.4023 49.7149 47.4616 49.7743 47.5347 49.7743H49.4069C49.4799 49.7743 49.5392 49.7149 49.5392 49.6417V47.6404C49.5392 47.5672 49.4799 47.5078 49.4069 47.5078Z" fill="white"/>
</g>
<g filter="url(#filter7_d_3868_33253)">
<path d="M49.4069 57.6543H47.5347C47.4616 57.6543 47.4023 57.7136 47.4023 57.7868V59.7882C47.4023 59.8614 47.4616 59.9208 47.5347 59.9208H49.4069C49.4799 59.9208 49.5392 59.8614 49.5392 59.7882V57.7868C49.5392 57.7136 49.4799 57.6543 49.4069 57.6543Z" fill="white"/>
</g>
<g filter="url(#filter8_d_3868_33253)">
<path d="M51.7897 50.0469H49.9175C49.8444 50.0469 49.7852 50.1062 49.7852 50.1794V52.1808C49.7852 52.254 49.8444 52.3133 49.9175 52.3133H51.7897C51.8627 52.3133 51.922 52.254 51.922 52.1808V50.1794C51.922 50.1062 51.8627 50.0469 51.7897 50.0469Z" fill="white"/>
</g>
<g filter="url(#filter9_d_3868_33253)">
<path d="M51.7897 55.1152H49.9175C49.8444 55.1152 49.7852 55.1746 49.7852 55.2478V57.2492C49.7852 57.3224 49.8444 57.3817 49.9175 57.3817H51.7897C51.8627 57.3817 51.922 57.3224 51.922 57.2492V55.2478C51.922 55.1746 51.8627 55.1152 51.7897 55.1152Z" fill="white"/>
</g>
<g filter="url(#filter10_d_3868_33253)">
<path d="M54.192 52.5859H52.3198C52.2467 52.5859 52.1875 52.6453 52.1875 52.7185V54.7199C52.1875 54.7931 52.2467 54.8524 52.3198 54.8524H54.192C54.2651 54.8524 54.3243 54.7931 54.3243 54.7199V52.7185C54.3243 52.6453 54.2651 52.5859 54.192 52.5859Z" fill="white"/>
</g>
<g filter="url(#filter11_d_3868_33253)">
<path d="M56.5553 50.0566H54.6831C54.61 50.0566 54.5508 50.116 54.5508 50.1892V52.1906C54.5508 52.2638 54.61 52.3231 54.6831 52.3231H56.5553C56.6284 52.3231 56.6876 52.2638 56.6876 52.1906V50.1892C56.6876 50.116 56.6284 50.0566 56.5553 50.0566Z" fill="white"/>
</g>
<g filter="url(#filter12_d_3868_33253)">
<path d="M56.5748 55.1152H54.7026C54.6296 55.1152 54.5703 55.1746 54.5703 55.2478V57.2492C54.5703 57.3224 54.6296 57.3817 54.7026 57.3817H56.5748C56.6479 57.3817 56.7071 57.3224 56.7071 57.2492V55.2478C56.7071 55.1746 56.6479 55.1152 56.5748 55.1152Z" fill="white"/>
</g>
<g filter="url(#filter13_d_3868_33253)">
<path d="M93.9576 47.5273H92.0854C92.0124 47.5273 91.9531 47.5867 91.9531 47.6599V49.6613C91.9531 49.7345 92.0124 49.7938 92.0854 49.7938H93.9576C94.0307 49.7938 94.09 49.7345 94.09 49.6613V47.6599C94.09 47.5867 94.0307 47.5273 93.9576 47.5273Z" fill="white"/>
</g>
<g filter="url(#filter14_d_3868_33253)">
<path d="M93.9772 57.6543H92.105C92.0319 57.6543 91.9727 57.7136 91.9727 57.7868V59.7882C91.9727 59.8614 92.0319 59.9208 92.105 59.9208H93.9772C94.0502 59.9208 94.1095 59.8614 94.1095 59.7882V57.7868C94.1095 57.7136 94.0502 57.6543 93.9772 57.6543Z" fill="white"/>
</g>
<g filter="url(#filter15_d_3868_33253)">
<path d="M96.3405 44.998H94.4682C94.3952 44.998 94.3359 45.0574 94.3359 45.1306V47.132C94.3359 47.2052 94.3952 47.2645 94.4682 47.2645H96.3405C96.4135 47.2645 96.4728 47.2052 96.4728 47.132V45.1306C96.4728 45.0574 96.4135 44.998 96.3405 44.998Z" fill="white"/>
</g>
<g filter="url(#filter16_d_3868_33253)">
<path d="M96.3405 60.2129H94.4682C94.3952 60.2129 94.3359 60.2722 94.3359 60.3454V62.3468C94.3359 62.42 94.3952 62.4794 94.4682 62.4794H96.3405C96.4135 62.4794 96.4728 62.42 96.4728 62.3468V60.3454C96.4728 60.2722 96.4135 60.2129 96.3405 60.2129Z" fill="white"/>
</g>
<g filter="url(#filter17_d_3868_33253)">
<path d="M82.0045 44.998H80.1323C80.0592 44.998 80 45.0574 80 45.1306V47.132C80 47.2052 80.0592 47.2645 80.1323 47.2645H82.0045C82.0776 47.2645 82.1368 47.2052 82.1368 47.132V45.1306C82.1368 45.0574 82.0776 44.998 82.0045 44.998Z" fill="white"/>
</g>
<g filter="url(#filter18_d_3868_33253)">
<path d="M82.0045 60.2129H80.1323C80.0592 60.2129 80 60.2722 80 60.3454V62.3468C80 62.42 80.0592 62.4794 80.1323 62.4794H82.0045C82.0776 62.4794 82.1368 62.42 82.1368 62.3468V60.3454C82.1368 60.2722 82.0776 60.2129 82.0045 60.2129Z" fill="white"/>
</g>
<g filter="url(#filter19_d_3868_33253)">
<path d="M84.4069 47.5078H82.5347C82.4616 47.5078 82.4023 47.5672 82.4023 47.6404V49.6417C82.4023 49.7149 82.4616 49.7743 82.5347 49.7743H84.4069C84.4799 49.7743 84.5392 49.7149 84.5392 49.6417V47.6404C84.5392 47.5672 84.4799 47.5078 84.4069 47.5078Z" fill="white"/>
</g>
<g filter="url(#filter20_d_3868_33253)">
<path d="M84.4069 57.6543H82.5347C82.4616 57.6543 82.4023 57.7136 82.4023 57.7868V59.7882C82.4023 59.8614 82.4616 59.9208 82.5347 59.9208H84.4069C84.4799 59.9208 84.5392 59.8614 84.5392 59.7882V57.7868C84.5392 57.7136 84.4799 57.6543 84.4069 57.6543Z" fill="white"/>
</g>
<g filter="url(#filter21_d_3868_33253)">
<path d="M86.7897 50.0469H84.9175C84.8444 50.0469 84.7852 50.1062 84.7852 50.1794V52.1808C84.7852 52.254 84.8444 52.3133 84.9175 52.3133H86.7897C86.8627 52.3133 86.922 52.254 86.922 52.1808V50.1794C86.922 50.1062 86.8627 50.0469 86.7897 50.0469Z" fill="white"/>
</g>
<g filter="url(#filter22_d_3868_33253)">
<path d="M86.7897 55.1152H84.9175C84.8444 55.1152 84.7852 55.1746 84.7852 55.2478V57.2492C84.7852 57.3224 84.8444 57.3817 84.9175 57.3817H86.7897C86.8627 57.3817 86.922 57.3224 86.922 57.2492V55.2478C86.922 55.1746 86.8627 55.1152 86.7897 55.1152Z" fill="white"/>
</g>
<g filter="url(#filter23_d_3868_33253)">
<path d="M89.192 52.5859H87.3198C87.2467 52.5859 87.1875 52.6453 87.1875 52.7185V54.7199C87.1875 54.7931 87.2467 54.8524 87.3198 54.8524H89.192C89.2651 54.8524 89.3243 54.7931 89.3243 54.7199V52.7185C89.3243 52.6453 89.2651 52.5859 89.192 52.5859Z" fill="white"/>
</g>
<g filter="url(#filter24_d_3868_33253)">
<path d="M91.5553 50.0566H89.6831C89.61 50.0566 89.5508 50.116 89.5508 50.1892V52.1906C89.5508 52.2638 89.61 52.3231 89.6831 52.3231H91.5553C91.6284 52.3231 91.6876 52.2638 91.6876 52.1906V50.1892C91.6876 50.116 91.6284 50.0566 91.5553 50.0566Z" fill="white"/>
</g>
<g filter="url(#filter25_d_3868_33253)">
<path d="M91.5748 55.1152H89.7026C89.6296 55.1152 89.5703 55.1746 89.5703 55.2478V57.2492C89.5703 57.3224 89.6296 57.3817 89.7026 57.3817H91.5748C91.6479 57.3817 91.7071 57.3224 91.7071 57.2492V55.2478C91.7071 55.1746 91.6479 55.1152 91.5748 55.1152Z" fill="white"/>
</g>
<path d="M69.8451 95.0369C76.666 95.0277 83.4377 96.1929 89.8633 98.4814C90.0545 98.548 90.2306 98.652 90.3815 98.7872C90.5323 98.9225 90.6547 99.0862 90.7418 99.2691C90.8289 99.452 90.8789 99.6503 90.8888 99.8526C90.8987 100.055 90.8684 100.257 90.7996 100.448C90.7317 100.643 90.6254 100.822 90.4871 100.975C90.3487 101.128 90.181 101.252 89.994 101.339C89.807 101.427 89.6043 101.476 89.3981 101.483C89.1918 101.491 88.9861 101.457 88.7931 101.384C82.6988 99.2209 76.2785 98.1192 69.8116 98.1269C63.4876 98.1202 57.2072 99.1737 51.2315 101.244C51.0401 101.311 50.8371 101.34 50.6344 101.329C50.4318 101.318 50.2333 101.266 50.0505 101.178C49.8677 101.09 49.7042 100.966 49.5694 100.815C49.4346 100.663 49.3312 100.486 49.2651 100.294C49.1986 100.103 49.1704 99.9006 49.1821 99.6987C49.1939 99.4967 49.2453 99.2991 49.3335 99.1171C49.4217 98.9351 49.545 98.7722 49.6962 98.6379C49.8475 98.5035 50.0237 98.4004 50.2148 98.3342C56.5268 96.1411 63.163 95.0264 69.8451 95.0369Z" fill="white"/>
<defs>
<filter id="filter0_d_3868_33253" x="42.3817" y="32.9559" width="31.2796" height="31.4085" filterUnits="userSpaceOnUse" color-interpolation-filters="sRGB">
<feFlood flood-opacity="0" result="BackgroundImageFix"/>
<feColorMatrix in="SourceAlpha" type="matrix" values="0 0 0 0 0 0 0 0 0 0 0 0 0 0 0 0 0 0 127 0" result="hardAlpha"/>
<feOffset/>
<feGaussianBlur stdDeviation="7.28571"/>
<feColorMatrix type="matrix" values="0 0 0 0 1 0 0 0 0 1 0 0 0 0 1 0 0 0 0.75 0"/>
<feBlend mode="normal" in2="BackgroundImageFix" result="effect1_dropShadow_3868_33253"/>
<feBlend mode="normal" in="SourceGraphic" in2="effect1_dropShadow_3868_33253" result="shape"/>
</filter>
<filter id="filter1_d_3868_33253" x="42.4012" y="43.0829" width="31.2796" height="31.4085" filterUnits="userSpaceOnUse" color-interpolation-filters="sRGB">
<feFlood flood-opacity="0" result="BackgroundImageFix"/>
<feColorMatrix in="SourceAlpha" type="matrix" values="0 0 0 0 0 0 0 0 0 0 0 0 0 0 0 0 0 0 127 0" result="hardAlpha"/>
<feOffset/>
<feGaussianBlur stdDeviation="7.28571"/>
<feColorMatrix type="matrix" values="0 0 0 0 1 0 0 0 0 1 0 0 0 0 1 0 0 0 0.75 0"/>
<feBlend mode="normal" in2="BackgroundImageFix" result="effect1_dropShadow_3868_33253"/>
<feBlend mode="normal" in="SourceGraphic" in2="effect1_dropShadow_3868_33253" result="shape"/>
</filter>
<filter id="filter2_d_3868_33253" x="44.7645" y="30.4266" width="31.2796" height="31.4085" filterUnits="userSpaceOnUse" color-interpolation-filters="sRGB">
<feFlood flood-opacity="0" result="BackgroundImageFix"/>
<feColorMatrix in="SourceAlpha" type="matrix" values="0 0 0 0 0 0 0 0 0 0 0 0 0 0 0 0 0 0 127 0" result="hardAlpha"/>
<feOffset/>
<feGaussianBlur stdDeviation="7.28571"/>
<feColorMatrix type="matrix" values="0 0 0 0 1 0 0 0 0 1 0 0 0 0 1 0 0 0 0.75 0"/>
<feBlend mode="normal" in2="BackgroundImageFix" result="effect1_dropShadow_3868_33253"/>
<feBlend mode="normal" in="SourceGraphic" in2="effect1_dropShadow_3868_33253" result="shape"/>
</filter>
<filter id="filter3_d_3868_33253" x="44.7645" y="45.6415" width="31.2796" height="31.4085" filterUnits="userSpaceOnUse" color-interpolation-filters="sRGB">
<feFlood flood-opacity="0" result="BackgroundImageFix"/>
<feColorMatrix in="SourceAlpha" type="matrix" values="0 0 0 0 0 0 0 0 0 0 0 0 0 0 0 0 0 0 127 0" result="hardAlpha"/>
<feOffset/>
<feGaussianBlur stdDeviation="7.28571"/>
<feColorMatrix type="matrix" values="0 0 0 0 1 0 0 0 0 1 0 0 0 0 1 0 0 0 0.75 0"/>
<feBlend mode="normal" in2="BackgroundImageFix" result="effect1_dropShadow_3868_33253"/>
<feBlend mode="normal" in="SourceGraphic" in2="effect1_dropShadow_3868_33253" result="shape"/>
</filter>
<filter id="filter4_d_3868_33253" x="30.4286" y="30.4266" width="31.2796" height="31.4085" filterUnits="userSpaceOnUse" color-interpolation-filters="sRGB">
<feFlood flood-opacity="0" result="BackgroundImageFix"/>
<feColorMatrix in="SourceAlpha" type="matrix" values="0 0 0 0 0 0 0 0 0 0 0 0 0 0 0 0 0 0 127 0" result="hardAlpha"/>
<feOffset/>
<feGaussianBlur stdDeviation="7.28571"/>
<feColorMatrix type="matrix" values="0 0 0 0 1 0 0 0 0 1 0 0 0 0 1 0 0 0 0.75 0"/>
<feBlend mode="normal" in2="BackgroundImageFix" result="effect1_dropShadow_3868_33253"/>
<feBlend mode="normal" in="SourceGraphic" in2="effect1_dropShadow_3868_33253" result="shape"/>
</filter>
<filter id="filter5_d_3868_33253" x="30.4286" y="45.6415" width="31.2796" height="31.4085" filterUnits="userSpaceOnUse" color-interpolation-filters="sRGB">
<feFlood flood-opacity="0" result="BackgroundImageFix"/>
<feColorMatrix in="SourceAlpha" type="matrix" values="0 0 0 0 0 0 0 0 0 0 0 0 0 0 0 0 0 0 127 0" result="hardAlpha"/>
<feOffset/>
<feGaussianBlur stdDeviation="7.28571"/>
<feColorMatrix type="matrix" values="0 0 0 0 1 0 0 0 0 1 0 0 0 0 1 0 0 0 0.75 0"/>
<feBlend mode="normal" in2="BackgroundImageFix" result="effect1_dropShadow_3868_33253"/>
<feBlend mode="normal" in="SourceGraphic" in2="effect1_dropShadow_3868_33253" result="shape"/>
</filter>
<filter id="filter6_d_3868_33253" x="32.8309" y="32.9364" width="31.2796" height="31.4085" filterUnits="userSpaceOnUse" color-interpolation-filters="sRGB">
<feFlood flood-opacity="0" result="BackgroundImageFix"/>
<feColorMatrix in="SourceAlpha" type="matrix" values="0 0 0 0 0 0 0 0 0 0 0 0 0 0 0 0 0 0 127 0" result="hardAlpha"/>
<feOffset/>
<feGaussianBlur stdDeviation="7.28571"/>
<feColorMatrix type="matrix" values="0 0 0 0 1 0 0 0 0 1 0 0 0 0 1 0 0 0 0.75 0"/>
<feBlend mode="normal" in2="BackgroundImageFix" result="effect1_dropShadow_3868_33253"/>
<feBlend mode="normal" in="SourceGraphic" in2="effect1_dropShadow_3868_33253" result="shape"/>
</filter>
<filter id="filter7_d_3868_33253" x="32.8309" y="43.0829" width="31.2796" height="31.4085" filterUnits="userSpaceOnUse" color-interpolation-filters="sRGB">
<feFlood flood-opacity="0" result="BackgroundImageFix"/>
<feColorMatrix in="SourceAlpha" type="matrix" values="0 0 0 0 0 0 0 0 0 0 0 0 0 0 0 0 0 0 127 0" result="hardAlpha"/>
<feOffset/>
<feGaussianBlur stdDeviation="7.28571"/>
<feColorMatrix type="matrix" values="0 0 0 0 1 0 0 0 0 1 0 0 0 0 1 0 0 0 0.75 0"/>
<feBlend mode="normal" in2="BackgroundImageFix" result="effect1_dropShadow_3868_33253"/>
<feBlend mode="normal" in="SourceGraphic" in2="effect1_dropShadow_3868_33253" result="shape"/>
</filter>
<filter id="filter8_d_3868_33253" x="35.2137" y="35.4754" width="31.2796" height="31.4085" filterUnits="userSpaceOnUse" color-interpolation-filters="sRGB">
<feFlood flood-opacity="0" result="BackgroundImageFix"/>
<feColorMatrix in="SourceAlpha" type="matrix" values="0 0 0 0 0 0 0 0 0 0 0 0 0 0 0 0 0 0 127 0" result="hardAlpha"/>
<feOffset/>
<feGaussianBlur stdDeviation="7.28571"/>
<feColorMatrix type="matrix" values="0 0 0 0 1 0 0 0 0 1 0 0 0 0 1 0 0 0 0.75 0"/>
<feBlend mode="normal" in2="BackgroundImageFix" result="effect1_dropShadow_3868_33253"/>
<feBlend mode="normal" in="SourceGraphic" in2="effect1_dropShadow_3868_33253" result="shape"/>
</filter>
<filter id="filter9_d_3868_33253" x="35.2137" y="40.5438" width="31.2796" height="31.4085" filterUnits="userSpaceOnUse" color-interpolation-filters="sRGB">
<feFlood flood-opacity="0" result="BackgroundImageFix"/>
<feColorMatrix in="SourceAlpha" type="matrix" values="0 0 0 0 0 0 0 0 0 0 0 0 0 0 0 0 0 0 127 0" result="hardAlpha"/>
<feOffset/>
<feGaussianBlur stdDeviation="7.28571"/>
<feColorMatrix type="matrix" values="0 0 0 0 1 0 0 0 0 1 0 0 0 0 1 0 0 0 0.75 0"/>
<feBlend mode="normal" in2="BackgroundImageFix" result="effect1_dropShadow_3868_33253"/>
<feBlend mode="normal" in="SourceGraphic" in2="effect1_dropShadow_3868_33253" result="shape"/>
</filter>
<filter id="filter10_d_3868_33253" x="37.6161" y="38.0145" width="31.2796" height="31.4085" filterUnits="userSpaceOnUse" color-interpolation-filters="sRGB">
<feFlood flood-opacity="0" result="BackgroundImageFix"/>
<feColorMatrix in="SourceAlpha" type="matrix" values="0 0 0 0 0 0 0 0 0 0 0 0 0 0 0 0 0 0 127 0" result="hardAlpha"/>
<feOffset/>
<feGaussianBlur stdDeviation="7.28571"/>
<feColorMatrix type="matrix" values="0 0 0 0 1 0 0 0 0 1 0 0 0 0 1 0 0 0 0.75 0"/>
<feBlend mode="normal" in2="BackgroundImageFix" result="effect1_dropShadow_3868_33253"/>
<feBlend mode="normal" in="SourceGraphic" in2="effect1_dropShadow_3868_33253" result="shape"/>
</filter>
<filter id="filter11_d_3868_33253" x="39.9794" y="35.4852" width="31.2796" height="31.4085" filterUnits="userSpaceOnUse" color-interpolation-filters="sRGB">
<feFlood flood-opacity="0" result="BackgroundImageFix"/>
<feColorMatrix in="SourceAlpha" type="matrix" values="0 0 0 0 0 0 0 0 0 0 0 0 0 0 0 0 0 0 127 0" result="hardAlpha"/>
<feOffset/>
<feGaussianBlur stdDeviation="7.28571"/>
<feColorMatrix type="matrix" values="0 0 0 0 1 0 0 0 0 1 0 0 0 0 1 0 0 0 0.75 0"/>
<feBlend mode="normal" in2="BackgroundImageFix" result="effect1_dropShadow_3868_33253"/>
<feBlend mode="normal" in="SourceGraphic" in2="effect1_dropShadow_3868_33253" result="shape"/>
</filter>
<filter id="filter12_d_3868_33253" x="39.9989" y="40.5438" width="31.2796" height="31.4085" filterUnits="userSpaceOnUse" color-interpolation-filters="sRGB">
<feFlood flood-opacity="0" result="BackgroundImageFix"/>
<feColorMatrix in="SourceAlpha" type="matrix" values="0 0 0 0 0 0 0 0 0 0 0 0 0 0 0 0 0 0 127 0" result="hardAlpha"/>
<feOffset/>
<feGaussianBlur stdDeviation="7.28571"/>
<feColorMatrix type="matrix" values="0 0 0 0 1 0 0 0 0 1 0 0 0 0 1 0 0 0 0.75 0"/>
<feBlend mode="normal" in2="BackgroundImageFix" result="effect1_dropShadow_3868_33253"/>
<feBlend mode="normal" in="SourceGraphic" in2="effect1_dropShadow_3868_33253" result="shape"/>
</filter>
<filter id="filter13_d_3868_33253" x="77.3817" y="32.9559" width="31.2796" height="31.4085" filterUnits="userSpaceOnUse" color-interpolation-filters="sRGB">
<feFlood flood-opacity="0" result="BackgroundImageFix"/>
<feColorMatrix in="SourceAlpha" type="matrix" values="0 0 0 0 0 0 0 0 0 0 0 0 0 0 0 0 0 0 127 0" result="hardAlpha"/>
<feOffset/>
<feGaussianBlur stdDeviation="7.28571"/>
<feColorMatrix type="matrix" values="0 0 0 0 1 0 0 0 0 1 0 0 0 0 1 0 0 0 0.75 0"/>
<feBlend mode="normal" in2="BackgroundImageFix" result="effect1_dropShadow_3868_33253"/>
<feBlend mode="normal" in="SourceGraphic" in2="effect1_dropShadow_3868_33253" result="shape"/>
</filter>
<filter id="filter14_d_3868_33253" x="77.4012" y="43.0829" width="31.2796" height="31.4085" filterUnits="userSpaceOnUse" color-interpolation-filters="sRGB">
<feFlood flood-opacity="0" result="BackgroundImageFix"/>
<feColorMatrix in="SourceAlpha" type="matrix" values="0 0 0 0 0 0 0 0 0 0 0 0 0 0 0 0 0 0 127 0" result="hardAlpha"/>
<feOffset/>
<feGaussianBlur stdDeviation="7.28571"/>
<feColorMatrix type="matrix" values="0 0 0 0 1 0 0 0 0 1 0 0 0 0 1 0 0 0 0.75 0"/>
<feBlend mode="normal" in2="BackgroundImageFix" result="effect1_dropShadow_3868_33253"/>
<feBlend mode="normal" in="SourceGraphic" in2="effect1_dropShadow_3868_33253" result="shape"/>
</filter>
<filter id="filter15_d_3868_33253" x="79.7645" y="30.4266" width="31.2796" height="31.4085" filterUnits="userSpaceOnUse" color-interpolation-filters="sRGB">
<feFlood flood-opacity="0" result="BackgroundImageFix"/>
<feColorMatrix in="SourceAlpha" type="matrix" values="0 0 0 0 0 0 0 0 0 0 0 0 0 0 0 0 0 0 127 0" result="hardAlpha"/>
<feOffset/>
<feGaussianBlur stdDeviation="7.28571"/>
<feColorMatrix type="matrix" values="0 0 0 0 1 0 0 0 0 1 0 0 0 0 1 0 0 0 0.75 0"/>
<feBlend mode="normal" in2="BackgroundImageFix" result="effect1_dropShadow_3868_33253"/>
<feBlend mode="normal" in="SourceGraphic" in2="effect1_dropShadow_3868_33253" result="shape"/>
</filter>
<filter id="filter16_d_3868_33253" x="79.7645" y="45.6415" width="31.2796" height="31.4085" filterUnits="userSpaceOnUse" color-interpolation-filters="sRGB">
<feFlood flood-opacity="0" result="BackgroundImageFix"/>
<feColorMatrix in="SourceAlpha" type="matrix" values="0 0 0 0 0 0 0 0 0 0 0 0 0 0 0 0 0 0 127 0" result="hardAlpha"/>
<feOffset/>
<feGaussianBlur stdDeviation="7.28571"/>
<feColorMatrix type="matrix" values="0 0 0 0 1 0 0 0 0 1 0 0 0 0 1 0 0 0 0.75 0"/>
<feBlend mode="normal" in2="BackgroundImageFix" result="effect1_dropShadow_3868_33253"/>
<feBlend mode="normal" in="SourceGraphic" in2="effect1_dropShadow_3868_33253" result="shape"/>
</filter>
<filter id="filter17_d_3868_33253" x="65.4286" y="30.4266" width="31.2796" height="31.4085" filterUnits="userSpaceOnUse" color-interpolation-filters="sRGB">
<feFlood flood-opacity="0" result="BackgroundImageFix"/>
<feColorMatrix in="SourceAlpha" type="matrix" values="0 0 0 0 0 0 0 0 0 0 0 0 0 0 0 0 0 0 127 0" result="hardAlpha"/>
<feOffset/>
<feGaussianBlur stdDeviation="7.28571"/>
<feColorMatrix type="matrix" values="0 0 0 0 1 0 0 0 0 1 0 0 0 0 1 0 0 0 0.75 0"/>
<feBlend mode="normal" in2="BackgroundImageFix" result="effect1_dropShadow_3868_33253"/>
<feBlend mode="normal" in="SourceGraphic" in2="effect1_dropShadow_3868_33253" result="shape"/>
</filter>
<filter id="filter18_d_3868_33253" x="65.4286" y="45.6415" width="31.2796" height="31.4085" filterUnits="userSpaceOnUse" color-interpolation-filters="sRGB">
<feFlood flood-opacity="0" result="BackgroundImageFix"/>
<feColorMatrix in="SourceAlpha" type="matrix" values="0 0 0 0 0 0 0 0 0 0 0 0 0 0 0 0 0 0 127 0" result="hardAlpha"/>
<feOffset/>
<feGaussianBlur stdDeviation="7.28571"/>
<feColorMatrix type="matrix" values="0 0 0 0 1 0 0 0 0 1 0 0 0 0 1 0 0 0 0.75 0"/>
<feBlend mode="normal" in2="BackgroundImageFix" result="effect1_dropShadow_3868_33253"/>
<feBlend mode="normal" in="SourceGraphic" in2="effect1_dropShadow_3868_33253" result="shape"/>
</filter>
<filter id="filter19_d_3868_33253" x="67.8309" y="32.9364" width="31.2796" height="31.4085" filterUnits="userSpaceOnUse" color-interpolation-filters="sRGB">
<feFlood flood-opacity="0" result="BackgroundImageFix"/>
<feColorMatrix in="SourceAlpha" type="matrix" values="0 0 0 0 0 0 0 0 0 0 0 0 0 0 0 0 0 0 127 0" result="hardAlpha"/>
<feOffset/>
<feGaussianBlur stdDeviation="7.28571"/>
<feColorMatrix type="matrix" values="0 0 0 0 1 0 0 0 0 1 0 0 0 0 1 0 0 0 0.75 0"/>
<feBlend mode="normal" in2="BackgroundImageFix" result="effect1_dropShadow_3868_33253"/>
<feBlend mode="normal" in="SourceGraphic" in2="effect1_dropShadow_3868_33253" result="shape"/>
</filter>
<filter id="filter20_d_3868_33253" x="67.8309" y="43.0829" width="31.2796" height="31.4085" filterUnits="userSpaceOnUse" color-interpolation-filters="sRGB">
<feFlood flood-opacity="0" result="BackgroundImageFix"/>
<feColorMatrix in="SourceAlpha" type="matrix" values="0 0 0 0 0 0 0 0 0 0 0 0 0 0 0 0 0 0 127 0" result="hardAlpha"/>
<feOffset/>
<feGaussianBlur stdDeviation="7.28571"/>
<feColorMatrix type="matrix" values="0 0 0 0 1 0 0 0 0 1 0 0 0 0 1 0 0 0 0.75 0"/>
<feBlend mode="normal" in2="BackgroundImageFix" result="effect1_dropShadow_3868_33253"/>
<feBlend mode="normal" in="SourceGraphic" in2="effect1_dropShadow_3868_33253" result="shape"/>
</filter>
<filter id="filter21_d_3868_33253" x="70.2137" y="35.4754" width="31.2796" height="31.4085" filterUnits="userSpaceOnUse" color-interpolation-filters="sRGB">
<feFlood flood-opacity="0" result="BackgroundImageFix"/>
<feColorMatrix in="SourceAlpha" type="matrix" values="0 0 0 0 0 0 0 0 0 0 0 0 0 0 0 0 0 0 127 0" result="hardAlpha"/>
<feOffset/>
<feGaussianBlur stdDeviation="7.28571"/>
<feColorMatrix type="matrix" values="0 0 0 0 1 0 0 0 0 1 0 0 0 0 1 0 0 0 0.75 0"/>
<feBlend mode="normal" in2="BackgroundImageFix" result="effect1_dropShadow_3868_33253"/>
<feBlend mode="normal" in="SourceGraphic" in2="effect1_dropShadow_3868_33253" result="shape"/>
</filter>
<filter id="filter22_d_3868_33253" x="70.2137" y="40.5438" width="31.2796" height="31.4085" filterUnits="userSpaceOnUse" color-interpolation-filters="sRGB">
<feFlood flood-opacity="0" result="BackgroundImageFix"/>
<feColorMatrix in="SourceAlpha" type="matrix" values="0 0 0 0 0 0 0 0 0 0 0 0 0 0 0 0 0 0 127 0" result="hardAlpha"/>
<feOffset/>
<feGaussianBlur stdDeviation="7.28571"/>
<feColorMatrix type="matrix" values="0 0 0 0 1 0 0 0 0 1 0 0 0 0 1 0 0 0 0.75 0"/>
<feBlend mode="normal" in2="BackgroundImageFix" result="effect1_dropShadow_3868_33253"/>
<feBlend mode="normal" in="SourceGraphic" in2="effect1_dropShadow_3868_33253" result="shape"/>
</filter>
<filter id="filter23_d_3868_33253" x="72.6161" y="38.0145" width="31.2796" height="31.4085" filterUnits="userSpaceOnUse" color-interpolation-filters="sRGB">
<feFlood flood-opacity="0" result="BackgroundImageFix"/>
<feColorMatrix in="SourceAlpha" type="matrix" values="0 0 0 0 0 0 0 0 0 0 0 0 0 0 0 0 0 0 127 0" result="hardAlpha"/>
<feOffset/>
<feGaussianBlur stdDeviation="7.28571"/>
<feColorMatrix type="matrix" values="0 0 0 0 1 0 0 0 0 1 0 0 0 0 1 0 0 0 0.75 0"/>
<feBlend mode="normal" in2="BackgroundImageFix" result="effect1_dropShadow_3868_33253"/>
<feBlend mode="normal" in="SourceGraphic" in2="effect1_dropShadow_3868_33253" result="shape"/>
</filter>
<filter id="filter24_d_3868_33253" x="74.9794" y="35.4852" width="31.2796" height="31.4085" filterUnits="userSpaceOnUse" color-interpolation-filters="sRGB">
<feFlood flood-opacity="0" result="BackgroundImageFix"/>
<feColorMatrix in="SourceAlpha" type="matrix" values="0 0 0 0 0 0 0 0 0 0 0 0 0 0 0 0 0 0 127 0" result="hardAlpha"/>
<feOffset/>
<feGaussianBlur stdDeviation="7.28571"/>
<feColorMatrix type="matrix" values="0 0 0 0 1 0 0 0 0 1 0 0 0 0 1 0 0 0 0.75 0"/>
<feBlend mode="normal" in2="BackgroundImageFix" result="effect1_dropShadow_3868_33253"/>
<feBlend mode="normal" in="SourceGraphic" in2="effect1_dropShadow_3868_33253" result="shape"/>
</filter>
<filter id="filter25_d_3868_33253" x="74.9989" y="40.5438" width="31.2796" height="31.4085" filterUnits="userSpaceOnUse" color-interpolation-filters="sRGB">
<feFlood flood-opacity="0" result="BackgroundImageFix"/>
<feColorMatrix in="SourceAlpha" type="matrix" values="0 0 0 0 0 0 0 0 0 0 0 0 0 0 0 0 0 0 127 0" result="hardAlpha"/>
<feOffset/>
<feGaussianBlur stdDeviation="7.28571"/>
<feColorMatrix type="matrix" values="0 0 0 0 1 0 0 0 0 1 0 0 0 0 1 0 0 0 0.75 0"/>
<feBlend mode="normal" in2="BackgroundImageFix" result="effect1_dropShadow_3868_33253"/>
<feBlend mode="normal" in="SourceGraphic" in2="effect1_dropShadow_3868_33253" result="shape"/>
</filter>
</defs>
</svg>
